<svg width="22" height="36" viewBox="0 0 22 36" fill="none" xmlns="http://www.w3.org/2000/svg">
<path d="M11.0215 2.93302C14.1472 6.9011 15.8158 11.7944 15.7553 16.8155V18.0141L16.7865 18.6416C18.119 19.4482 19.1127 20.6993 19.5866 22.1669C19.1705 21.8605 18.7352 21.5803 18.2833 21.3278L15.5333 19.7838L15.0391 22.9001C14.9963 23.1755 14.9389 23.4485 14.8672 23.718H7.16151C7.08984 23.4485 7.03242 23.1755 6.98964 22.9001L6.49542 19.7838L3.74542 21.3278C3.29353 21.5803 2.85827 21.8605 2.44217 22.1669C2.91607 20.6993 3.90973 19.4482 5.24229 18.6416L6.27344 18.0141V16.8155C6.21295 11.7944 7.88151 6.9011 11.0072 2.93302H11.0215ZM11.0215 0C10.8233 0.000390625 10.6323 0.0673828 10.4817 0.188281C10.3311 0.309179 10.2305 0.477539 10.1977 0.664062C9.33437 5.93979 9.33437 11.3392 10.1977 16.6149C10.2305 16.8015 10.3311 16.9698 10.4817 17.0907C10.6323 17.2116 10.8233 17.2786 11.0215 17.279C11.2197 17.2786 11.4107 17.2116 11.5613 17.0907C11.7119 16.9698 11.8125 16.8015 11.8453 16.6149C12.7086 11.3392 12.7086 5.93979 11.8453 0.664062C11.8125 0.477539 11.7119 0.309179 11.5613 0.188281C11.4107 0.0673828 11.2197 0.000390625 11.0215 0V0Z" fill="url(#paint0_linear_2204_12)"/>
<path d="M11.0215 25.7685C12.7516 25.7685 14.1551 27.1719 14.1551 28.902C14.1551 30.6321 12.7516 32.0356 11.0215 32.0356C9.29135 32.0356 7.88791 30.6321 7.88791 28.902C7.88791 27.1719 9.29135 25.7685 11.0215 25.7685ZM11.0215 23.718C8.15674 23.718 5.83741 26.0373 5.83741 28.902C5.83741 31.7668 8.15674 34.0861 11.0215 34.0861C13.8863 34.0861 16.2056 31.7668 16.2056 28.902C16.2056 26.0373 13.8863 23.718 11.0215 23.718Z" fill="url(#paint1_linear_2204_12)"/>
<path d="M11.0215 29.9876C10.4526 29.9876 9.99048 29.5255 9.99048 28.9566C9.99048 28.3876 10.4526 27.9255 11.0215 27.9255C11.5904 27.9255 12.0525 28.3876 12.0525 28.9566C12.0525 29.5255 11.5904 29.9876 11.0215 29.9876Z" fill="url(#paint2_linear_2204_12)"/>
<defs>
<linearGradient id="paint0_linear_2204_12" x1="11.0142" y1="0" x2="11.0142" y2="23.718" gradientUnits="userSpaceOnUse">
<stop stop-color="#4AA7E3"/>
<stop offset="1" stop-color="#8B5CF6"/>
</linearGradient>
<linearGradient id="paint1_linear_2204_12" x1="11.0215" y1="23.718" x2="11.0215" y2="34.0861" gradientUnits="userSpaceOnUse">
<stop stop-color="#4AA7E3"/>
<stop offset="1" stop-color="#8B5CF6"/>
</linearGradient>
<linearGradient id="paint2_linear_2204_12" x1="11.0215" y1="27.9255" x2="11.0215" y2="29.9876" gradientUnits="userSpaceOnUse">
<stop stop-color="#4AA7E3"/>
<stop offset="1" stop-color="#8B5CF6"/>
</linearGradient>
</defs>
</svg> 